<svg xmlns="http://www.w3.org/2000/svg" width="1268" height="361" viewBox="0 0 1268 361">
    <path fill="#FFF" fill-opacity=".2" d="M1150.545 361c-19.873 0-37.076-3.108-51.61-9.325-14.533-6.217-25.656-14.802-33.367-25.755-7.712-10.954-11.568-23.535-11.568-37.745 0-17.466 4.45-31.38 13.347-41.741 8.898-10.362 19.428-17.837 31.589-22.425 12.16-4.589 27.732-9.103 46.715-13.544 17.5-3.848 30.328-7.697 38.484-11.545 8.157-3.849 12.235-9.622 12.235-17.319 0-6.808-2.224-12.063-6.674-15.764-4.449-3.7-10.974-5.55-19.575-5.55-10.975 0-20.095 2.886-27.362 8.659-7.267 5.773-11.938 13.692-14.015 23.757h-71.185c4.746-25.755 16.536-46.478 35.37-62.168 18.835-15.69 43.972-23.535 75.412-23.535 30.847 0 54.723 6.883 71.63 20.649 16.906 13.765 25.36 31.75 25.36 53.952 0 17.17-4.301 30.714-12.903 40.632-8.601 9.917-18.834 17.096-30.698 21.536-11.864 4.44-26.991 8.585-45.38 12.434-18.39 4.144-31.663 8.067-39.82 11.767-8.156 3.7-12.235 9.844-12.235 18.429 0 6.512 2.225 11.767 6.674 15.764 4.449 3.996 10.974 5.994 19.576 5.994 12.457 0 22.616-2.812 30.476-8.437 7.86-5.624 12.383-13.765 13.57-24.423H1268c-4.45 27.532-16.758 48.698-36.927 63.5C1210.903 353.6 1184.06 361 1150.545 361zM900 358v-65.145h24.067c9.508 0 16.267-1.92 20.278-5.761 4.012-3.841 6.017-10.636 6.017-20.386v-92.179h-49.916v-63.815h49.916V50h76.212v60.714H1060v63.815h-33.426v90.85c0 33.09-8.097 56.798-24.29 71.127C986.091 350.836 963.435 358 934.318 358H900zm-102.806 3c-18.65 0-35.006-4.302-49.068-12.906-14.061-8.604-24.645-20.175-31.75-34.713v44.949H640V110h76.377v131.73c0 18.099 4.44 32.043 13.321 41.834 8.881 9.79 21.018 14.686 36.412 14.686 14.802 0 26.57-4.673 35.302-14.019 8.733-9.345 13.1-22.474 13.1-39.385V110H890v144.191c0 33.23-8.363 59.339-25.089 78.327S825.613 361 797.194 361zm-274.396 0c-18.98 0-35.29-4.296-48.93-12.889-13.642-8.592-23.576-20.296-29.803-35.111v44.889H368V29h76.065v125.778c6.227-14.815 16.161-26.519 29.803-35.111 13.64-8.593 29.95-12.89 48.93-12.89 20.462 0 38.774 5.112 54.935 15.334 16.162 10.222 28.914 24.889 38.255 44C625.33 185.222 630 207.815 630 233.89c0 25.778-4.67 48.296-14.012 67.555-9.341 19.26-22.093 34-38.255 44.223C561.572 355.889 543.26 361 522.798 361zm-25.076-66c16.313 0 29.438-5.338 39.374-16.015C547.032 268.31 552 253.48 552 234.5s-4.968-33.809-14.904-44.485C527.16 179.338 514.036 174 497.722 174c-16.016 0-29.14 5.412-39.373 16.237C448.116 201.062 443 215.817 443 234.5c0 18.387 5.116 33.067 15.349 44.04 10.233 10.973 23.357 16.46 39.373 16.46zM305.5 79c-13.68 0-24.683-3.751-33.01-11.254C264.163 60.243 260 50.9 260 39.72c0-11.475 4.163-20.964 12.49-28.467S291.82 0 305.5 0s24.683 3.751 33.01 11.254C346.837 18.757 351 28.246 351 39.721c0 11.18-4.163 20.522-12.49 28.025S319.18 79 305.5 79zM268 358V109h75v249h-75zm-139.722 3c-24.56 0-46.532-5.107-65.914-15.32-19.383-10.213-34.622-24.941-45.719-44.183C5.548 282.254 0 259.755 0 234c0-25.755 5.548-48.254 16.645-67.497 11.097-19.242 26.336-33.97 45.719-44.183C81.746 112.107 103.717 107 128.278 107c24.56 0 46.606 5.107 66.137 15.32 19.53 10.213 34.843 24.941 45.94 44.183C251.452 185.746 257 208.245 257 234c0 25.755-5.548 48.254-16.645 67.497-11.097 19.242-26.41 33.97-45.94 44.183-19.53 10.213-41.576 15.32-66.137 15.32zm-1-66c14.565 0 26.827-5.176 36.785-15.527C174.02 269.12 179 254.038 179 234.222s-4.98-34.974-14.937-45.473c-9.958-10.5-22.22-15.749-36.786-15.749-14.566 0-26.753 5.25-36.563 15.75C80.904 199.247 76 214.405 76 234.221c0 19.816 4.905 34.9 14.714 45.25 9.81 10.352 21.997 15.528 36.563 15.528z"/>
</svg>
